<svg xmlns="http://www.w3.org/2000/svg" xmlns:xlink="http://www.w3.org/1999/xlink" contentStyleType="text/css" data-diagram-type="CLASS" height="504px" preserveAspectRatio="none" style="width:528px;height:504px;background:#FFFFFF;" version="1.1" viewBox="0 0 528 504" width="528px" zoomAndPan="magnify"><defs/><g><!--cluster EstructuraI3--><g class="cluster" data-entity="EstructuraI3" data-source-line="1" data-uid="ent0002" id="cluster_EstructuraI3"><path d="M8.5,6 L107.2197,6 A3.75,3.75 0 0 1 109.7197,8.5 L116.7197,28.2969 L518.5,28.2969 A2.5,2.5 0 0 1 521,30.7969 L521,494.5 A2.5,2.5 0 0 1 518.5,497 L8.5,497 A2.5,2.5 0 0 1 6,494.5 L6,8.5 A2.5,2.5 0 0 1 8.5,6" fill="none" style="stroke:#000000;stroke-width:1.5;"/><line style="stroke:#000000;stroke-width:1.5;" x1="6" x2="116.7197" y1="28.2969" y2="28.2969"/><text fill="#000000" font-family="sans-serif" font-size="14" font-weight="bold" lengthAdjust="spacing" textLength="97.7197" x="10" y="20.9951">EstructuraI3</text></g><!--entity Pantalla--><g class="entity" data-entity="Pantalla" data-source-line="3" data-uid="ent0003" id="entity_Pantalla"><polygon fill="#F1F1F1" points="256.5,51,266.5,41,387.6709,41,387.6709,93.5938,377.6709,103.5938,256.5,103.5938,256.5,51" style="stroke:#181818;stroke-width:0.5;"/><line style="stroke:#181818;stroke-width:0.5;" x1="377.6709" x2="387.6709" y1="51" y2="41"/><line style="stroke:#181818;stroke-width:0.5;" x1="256.5" x2="377.6709" y1="51" y2="51"/><line style="stroke:#181818;stroke-width:0.5;" x1="377.6709" x2="377.6709" y1="51" y2="103.5938"/><text fill="#000000" font-family="sans-serif" font-size="14" font-weight="bold" lengthAdjust="spacing" textLength="64.8594" x="271.5" y="73.9951">Pantalla</text><text fill="#0000FF" font-family="sans-serif" font-size="14" lengthAdjust="spacing" textLength="91.1709" x="271.5" y="90.292">layout: splith</text></g><!--entity VentanaHija1--><g class="entity" data-entity="VentanaHija1" data-source-line="8" data-uid="ent0004" id="entity_VentanaHija1"><polygon fill="#F1F1F1" points="89,191,99,181,221.0527,181,221.0527,233.5938,211.0527,243.5938,89,243.5938,89,191" style="stroke:#181818;stroke-width:0.5;"/><line style="stroke:#181818;stroke-width:0.5;" x1="211.0527" x2="221.0527" y1="191" y2="181"/><line style="stroke:#181818;stroke-width:0.5;" x1="89" x2="211.0527" y1="191" y2="191"/><line style="stroke:#181818;stroke-width:0.5;" x1="211.0527" x2="211.0527" y1="191" y2="243.5938"/><text fill="#000000" font-family="sans-serif" font-size="14" font-weight="bold" lengthAdjust="spacing" textLength="92.0527" x="104" y="213.9951">Contenedor</text><text fill="#008000" font-family="sans-serif" font-size="14" lengthAdjust="spacing" textLength="90.583" x="104" y="230.292">layout: splitv</text></g><!--entity VentanaHija2--><g class="entity" data-entity="VentanaHija2" data-source-line="13" data-uid="ent0005" id="entity_VentanaHija2"><polygon fill="#F1F1F1" points="256,191,266,181,388.0527,181,388.0527,233.5938,378.0527,243.5938,256,243.5938,256,191" style="stroke:#181818;stroke-width:0.5;"/><line style="stroke:#181818;stroke-width:0.5;" x1="378.0527" x2="388.0527" y1="191" y2="181"/><line style="stroke:#181818;stroke-width:0.5;" x1="256" x2="378.0527" y1="191" y2="191"/><line style="stroke:#181818;stroke-width:0.5;" x1="378.0527" x2="378.0527" y1="191" y2="243.5938"/><text fill="#000000" font-family="sans-serif" font-size="14" font-weight="bold" lengthAdjust="spacing" textLength="92.0527" x="271" y="213.9951">Contenedor</text><text fill="#008000" font-family="sans-serif" font-size="14" lengthAdjust="spacing" textLength="90.583" x="271" y="230.292">layout: splitv</text></g><!--entity VentanaHija5--><g class="entity" data-entity="VentanaHija5" data-source-line="24" data-uid="ent0008" id="entity_VentanaHija5"><polygon fill="#F1F1F1" points="268,331,278,321,400.0527,321,400.0527,373.5938,390.0527,383.5938,268,383.5938,268,331" style="stroke:#181818;stroke-width:0.5;"/><line style="stroke:#181818;stroke-width:0.5;" x1="390.0527" x2="400.0527" y1="331" y2="321"/><line style="stroke:#181818;stroke-width:0.5;" x1="268" x2="390.0527" y1="331" y2="331"/><line style="stroke:#181818;stroke-width:0.5;" x1="390.0527" x2="390.0527" y1="331" y2="383.5938"/><text fill="#000000" font-family="sans-serif" font-size="14" font-weight="bold" lengthAdjust="spacing" textLength="92.0527" x="283" y="353.9951">Contenedor</text><text fill="#008000" font-family="sans-serif" font-size="14" lengthAdjust="spacing" textLength="90.583" x="283" y="370.292">layout: splitv</text></g><!--entity VentanaHija3--><g class="entity" data-entity="VentanaHija3" data-source-line="18" data-uid="ent0006" id="entity_VentanaHija3"><path d="M21.5,337 L21.5,368.2969 A2.5,2.5 0 0 0 24,370.7969 L97.7549,370.7969 A2.5,2.5 0 0 0 100.2549,368.2969 L100.2549,344.5 L90.2549,334.5 L24,334.5 A2.5,2.5 0 0 0 21.5,337" fill="#B0C4DE" style="stroke:#181818;stroke-width:0.5;"/><path d="M90.2549,334.5 L90.2549,342 A2.5,2.5 0 0 0 92.7549,344.5 L100.2549,344.5" fill="#B0C4DE" style="stroke:#181818;stroke-width:0.5;"/><text fill="#000000" font-family="sans-serif" font-size="14" lengthAdjust="spacing" textLength="58.7549" x="31.5" y="357.4951">VS Code</text></g><!--entity VentanaHija4--><g class="entity" data-entity="VentanaHija4" data-source-line="21" data-uid="ent0007" id="entity_VentanaHija4"><path d="M135.5,337 L135.5,368.2969 A2.5,2.5 0 0 0 138,370.7969 L229.624,370.7969 A2.5,2.5 0 0 0 232.124,368.2969 L232.124,344.5 L222.124,334.5 L138,334.5 A2.5,2.5 0 0 0 135.5,337" fill="#F1F1F1" style="stroke:#181818;stroke-width:0.5;"/><path d="M222.124,334.5 L222.124,342 A2.5,2.5 0 0 0 224.624,344.5 L232.124,344.5" fill="#F1F1F1" style="stroke:#181818;stroke-width:0.5;"/><text fill="#000000" font-family="sans-serif" font-size="14" lengthAdjust="spacing" textLength="76.624" x="145.5" y="357.4951">Navegador</text></g><!--entity VentanaHija6--><g class="entity" data-entity="VentanaHija6" data-source-line="29" data-uid="ent0009" id="entity_VentanaHija6"><path d="M435.5,337 L435.5,368.2969 A2.5,2.5 0 0 0 438,370.7969 L501.9316,370.7969 A2.5,2.5 0 0 0 504.4316,368.2969 L504.4316,344.5 L494.4316,334.5 L438,334.5 A2.5,2.5 0 0 0 435.5,337" fill="#F1F1F1" style="stroke:#181818;stroke-width:0.5;"/><path d="M494.4316,334.5 L494.4316,342 A2.5,2.5 0 0 0 496.9316,344.5 L504.4316,344.5" fill="#F1F1F1" style="stroke:#181818;stroke-width:0.5;"/><text fill="#000000" font-family="sans-serif" font-size="14" lengthAdjust="spacing" textLength="48.9316" x="445.5" y="357.4951">Spotify</text></g><!--entity VentanaHija7--><g class="entity" data-entity="VentanaHija7" data-source-line="32" data-uid="ent0010" id="entity_VentanaHija7"><path d="M423,197 L423,228.2969 A2.5,2.5 0 0 0 425.5,230.7969 L502.29,230.7969 A2.5,2.5 0 0 0 504.79,228.2969 L504.79,204.5 L494.79,194.5 L425.5,194.5 A2.5,2.5 0 0 0 423,197" fill="#F1F1F1" style="stroke:#181818;stroke-width:0.5;"/><path d="M494.79,194.5 L494.79,202 A2.5,2.5 0 0 0 497.29,204.5 L504.79,204.5" fill="#F1F1F1" style="stroke:#181818;stroke-width:0.5;"/><text fill="#000000" font-family="sans-serif" font-size="14" lengthAdjust="spacing" textLength="61.79" x="433" y="217.4951">Terminal</text></g><!--entity VentanaHija8--><g class="entity" data-entity="VentanaHija8" data-source-line="36" data-uid="ent0011" id="entity_VentanaHija8"><path d="M261,447.5 L261,478.7969 A2.5,2.5 0 0 0 263.5,481.2969 L316.4668,481.2969 A2.5,2.5 0 0 0 318.9668,478.7969 L318.9668,455 L308.9668,445 L263.5,445 A2.5,2.5 0 0 0 261,447.5" fill="#F1F1F1" style="stroke:#181818;stroke-width:0.5;"/><path d="M308.9668,445 L308.9668,452.5 A2.5,2.5 0 0 0 311.4668,455 L318.9668,455" fill="#F1F1F1" style="stroke:#181818;stroke-width:0.5;"/><text fill="#000000" font-family="sans-serif" font-size="14" lengthAdjust="spacing" textLength="37.9668" x="271" y="467.9951">Fotos</text></g><!--entity VentanaHija9--><g class="entity" data-entity="VentanaHija9" data-source-line="38" data-uid="ent0012" id="entity_VentanaHija9"><path d="M354.5,447.5 L354.5,478.7969 A2.5,2.5 0 0 0 357,481.2969 L453.0947,481.2969 A2.5,2.5 0 0 0 455.5947,478.7969 L455.5947,455 L445.5947,445 L357,445 A2.5,2.5 0 0 0 354.5,447.5" fill="#F1F1F1" style="stroke:#181818;stroke-width:0.5;"/><path d="M445.5947,445 L445.5947,452.5 A2.5,2.5 0 0 0 448.0947,455 L455.5947,455" fill="#F1F1F1" style="stroke:#181818;stroke-width:0.5;"/><text fill="#000000" font-family="sans-serif" font-size="14" lengthAdjust="spacing" textLength="81.0947" x="364.5" y="467.9951">Documento</text></g><!--link Pantalla to VentanaHija2--><g class="link" data-entity-1="Pantalla" data-entity-2="VentanaHija2" data-source-line="42" data-uid="lnk13" id="link_Pantalla_VentanaHija2"><path codeLine="42" d="M322,104.13 C322,127 322,152.11 322,174.96" fill="none" id="Pantalla-to-VentanaHija2" style="stroke:#181818;stroke-width:1;"/><polygon fill="#181818" points="322,180.96,326,171.96,322,175.96,318,171.96,322,180.96" style="stroke:#181818;stroke-width:1;"/></g><!--link Pantalla to VentanaHija7--><g class="link" data-entity-1="Pantalla" data-entity-2="VentanaHija7" data-source-line="43" data-uid="lnk14" id="link_Pantalla_VentanaHija7"><path codeLine="43" d="M353.51,104.13 C382.11,131.92 418.9365,167.7091 442.1065,190.2191" fill="none" id="Pantalla-to-VentanaHija7" style="stroke:#181818;stroke-width:1;"/><polygon fill="#181818" points="446.41,194.4,442.742,185.2596,442.8238,190.9159,437.1675,190.9976,446.41,194.4" style="stroke:#181818;stroke-width:1;"/></g><!--link Pantalla to VentanaHija1--><g class="link" data-entity-1="Pantalla" data-entity-2="VentanaHija1" data-source-line="44" data-uid="lnk15" id="link_Pantalla_VentanaHija1"><path codeLine="44" d="M281.57,104.16 C269.39,113.59 256.05,124.1 244,134 C225.64,149.09 210.1508,162.4523 193.7708,176.8923" fill="none" id="Pantalla-to-VentanaHija1" style="stroke:#0000FF;stroke-width:2;"/><polygon fill="#0000FF" points="189.27,180.86,198.6663,177.9089,193.0207,177.5536,193.376,171.9079,189.27,180.86" style="stroke:#0000FF;stroke-width:2;"/><text fill="#000000" font-family="sans-serif" font-size="13" lengthAdjust="spacing" textLength="68.377" x="245" y="147.0669">focus path</text></g><!--link VentanaHija1 to VentanaHija3--><g class="link" data-entity-1="VentanaHija1" data-entity-2="VentanaHija3" data-source-line="45" data-uid="lnk16" id="link_VentanaHija1_VentanaHija3"><path codeLine="45" d="M117.87,244.11 C108.57,253.05 99.2,263.31 92,274 C79.2,292.99 72.097,312.308 67.227,328.718" fill="none" id="VentanaHija1-to-VentanaHija3" style="stroke:#0000FF;stroke-width:2;"/><polygon fill="#0000FF" points="65.52,334.47,71.9153,326.98,66.9425,329.6766,64.2459,324.7039,65.52,334.47" style="stroke:#0000FF;stroke-width:2;"/><text fill="#000000" font-family="sans-serif" font-size="13" lengthAdjust="spacing" textLength="65.457" x="93" y="287.0669">is focused</text></g><!--link VentanaHija1 to VentanaHija4--><g class="link" data-entity-1="VentanaHija1" data-entity-2="VentanaHija4" data-source-line="46" data-uid="lnk17" id="link_VentanaHija1_VentanaHija4"><path codeLine="46" d="M161.44,244.13 C167.28,271.92 174.4462,306.0182 179.1762,328.5282" fill="none" id="VentanaHija1-to-VentanaHija4" style="stroke:#181818;stroke-width:1;"/><polygon fill="#181818" points="180.41,334.4,182.4738,324.7698,179.3818,329.5069,174.6447,326.4149,180.41,334.4" style="stroke:#181818;stroke-width:1;"/></g><!--link VentanaHija2 to VentanaHija5--><g class="link" data-entity-1="VentanaHija2" data-entity-2="VentanaHija5" data-source-line="47" data-uid="lnk18" id="link_VentanaHija2_VentanaHija5"><path codeLine="47" d="M324.66,244.13 C326.65,267 328.842,292.1324 330.822,314.9824" fill="none" id="VentanaHija2-to-VentanaHija5" style="stroke:#181818;stroke-width:1;"/><polygon fill="#181818" points="331.34,320.96,334.5481,311.6483,330.9084,315.9787,326.578,312.3389,331.34,320.96" style="stroke:#181818;stroke-width:1;"/></g><!--link VentanaHija2 to VentanaHija6--><g class="link" data-entity-1="VentanaHija2" data-entity-2="VentanaHija6" data-source-line="48" data-uid="lnk19" id="link_VentanaHija2_VentanaHija6"><path codeLine="48" d="M354.85,244.13 C384.65,271.92 423.1318,307.7981 447.2718,330.3081" fill="none" id="VentanaHija2-to-VentanaHija6" style="stroke:#181818;stroke-width:1;"/><polygon fill="#181818" points="451.66,334.4,447.8056,325.3367,448.0032,330.9901,442.3498,331.1876,451.66,334.4" style="stroke:#181818;stroke-width:1;"/></g><!--link VentanaHija5 to VentanaHija8--><g class="link" data-entity-1="VentanaHija5" data-entity-2="VentanaHija8" data-source-line="49" data-uid="lnk20" id="link_VentanaHija5_VentanaHija8"><path codeLine="49" d="M321.63,384.01 C313.65,403.69 305.816,423.0103 299.206,439.3003" fill="none" id="VentanaHija5-to-VentanaHija8" style="stroke:#181818;stroke-width:1;"/><polygon fill="#181818" points="296.95,444.86,304.0404,438.0244,298.83,440.2269,296.6275,435.0164,296.95,444.86" style="stroke:#181818;stroke-width:1;"/></g><!--link VentanaHija5 to VentanaHija9--><g class="link" data-entity-1="VentanaHija5" data-entity-2="VentanaHija9" data-source-line="50" data-uid="lnk21" id="link_VentanaHija5_VentanaHija9"><path codeLine="50" d="M353.97,384.01 C366.85,403.69 379.8346,423.5494 390.4946,439.8394" fill="none" id="VentanaHija5-to-VentanaHija9" style="stroke:#181818;stroke-width:1;"/><polygon fill="#181818" points="393.78,444.86,392.1989,435.1389,391.0422,440.6762,385.5048,439.5194,393.78,444.86" style="stroke:#181818;stroke-width:1;"/></g><!--SRC=[jP9FIyD04CNl_HH3UhMKDlrFpS6gA8W8bLx4moIPfAlRtP1i2aNwtPsaLBCnjXU5i8Tvx_rcTp891kyO4zna9iq3awTuxy97gmMWT4ZmXCgWb0YOWSF5kUyTI_EkxnMLI2i3WPOwlVHbJfx4dSxD3B942hEUTmkzC3h0nv6x8eOel1DlsAkm5-mbHQ5E6-XnIgHi_BQ2RwRt_vGU2MdHtPA-MiA2sphGVX3nsYmDaRpYKV0S0VRDoK6PVCGjnSWNSghU-Xk6__g6KKbV9jg8QEUSklEuT3vJkX4AfNDOar-yaz9xgutElfbrqxGqNUiWtt1HMytv-rg-JiUp_ka9RMnfB-rY9IzyBSDNszU36KJSE8C4pPf3bdOYw79GP8SiXJ-2jdbWw_swFZoZZsnzMDSdP_HfCSZM_XC0]--></g></svg>